<svg xmlns="http://www.w3.org/2000/svg" version="1.0" width="4167.000000pt" height="4167.000000pt" viewBox="0 0 4167.000000 4167.000000" preserveAspectRatio="xMidYMid meet">

<g transform="translate(0.000000,4167.000000) scale(0.100000,-0.100000)" fill="#cebed5" stroke="none">
<path d="M17845 30094 c-583 -59 -1076 -214 -1513 -478 -472 -284 -848 -686 -1081 -1157 -123 -247 -204 -504 -247 -784 -27 -169 -27 -662 -1 -845 73 -513 223 -972 497 -1525 567 -1144 1454 -2188 2766 -3256 474 -386 1113 -868 1533 -1158 467 -322 629 -450 816 -642 61 -63 135 -146 164 -186 l54 -71 80 101 c186 236 411 424 947 792 463 317 1180 863 1675 1275 1006 836 1734 1638 2278 2508 479 765 757 1480 853 2187 28 202 25 632 -4 824 -73 469 -247 869 -542 1251 -96 123 -327 355 -458 458 -469 371 -1030 600 -1692 689 -191 25 -654 25 -825 0 -660 -98 -1184 -361 -1669 -837 -365 -358 -556 -600 -618 -783 -25 -76 -26 -78 -33 -45 -12 54 -79 188 -136 270 -85 121 -213 269 -389 451 -323 333 -565 514 -915 683 -282 136 -522 210 -850 260 -96 15 -592 28 -690 18z m5776 -534 c606 -61 1136 -261 1574 -593 104 -80 300 -270 382 -372 364 -451 545 -1041 494 -1612 -13 -145 -65 -431 -81 -447 -6 -6 -10 -7 -10 -3 0 13 -50 285 -70 382 -208 1000 -695 1632 -1613 2091 -365 183 -796 333 -1447 505 -42 11 -44 12 -20 20 95 33 575 50 791 29z" fill="#cebed5"/>
<path d="M11378 28016 c-53 -19 -85 -42 -128 -90 -123 -135 -120 -132 -133 -112 -7 10 -25 39 -41 64 -68 103 -179 132 -272 70 -59 -40 -108 -118 -118 -185 -10 -67 -25 -758 -26 -1127 0 -170 -5 -463 -11 -650 -7 -241 -7 -406 0 -561 29 -599 35 -883 23 -1087 -19 -335 -61 -526 -147 -668 -25 -41 -57 -111 -72 -155 -25 -74 -27 -93 -27 -235 1 -248 25 -338 294 -1080 631 -1740 966 -2561 1267 -3115 475 -871 951 -1377 1886 -2003 340 -228 561 -364 1392 -857 406 -241 696 -422 1031 -645 509 -338 741 -517 980 -755 319 -317 465 -550 598 -955 232 -702 301 -1393 201 -1986 -13 -78 -33 -178 -45 -222 -11 -44 -20 -83 -20 -86 0 -3 1272 -6 2826 -6 2686 0 2825 1 2820 18 -20 62 -58 248 -76 367 -28 179 -38 588 -21 797 32 381 116 776 252 1174 115 339 259 570 529 848 252 259 486 443 1015 795 395 263 617 401 1215 756 1077 639 1504 922 1943 1290 650 544 1107 1223 1582 2350 209 498 792 2042 1020 2705 168 489 174 753 25 999 -63 105 -102 242 -132 461 -18 128 -17 778 1 1110 11 211 11 414 2 1185 -13 1045 -23 1346 -45 1399 -19 47 -93 126 -133 142 -98 41 -215 -16 -271 -132 -8 -19 -21 -34 -28 -34 -7 0 -33 26 -57 58 -89 115 -156 161 -246 169 -50 4 -61 1 -103 -26 -55 -35 -128 -129 -169 -216 -26 -56 -59 -187 -59 -235 0 -24 -13 -26 -31 -3 -8 9 -36 27 -64 39 -120 56 -249 11 -320 -111 -27 -45 -51 -143 -60 -247 -4 -38 -10 -68 -14 -68 -3 0 -40 34 -81 76 -85 86 -114 104 -165 104 -109 0 -208 -141 -274 -390 -53 -198 -139 -787 -176 -1195 -16 -191 -41 -592 -50 -825 -13 -330 -47 -578 -120 -876 -46 -186 -125 -429 -176 -543 -16 -35 -29 -65 -29 -67 0 -2 20 5 44 16 86 36 443 149 586 184 221 54 328 68 555 69 153 0 218 -3 275 -16 194 -44 384 -186 406 -304 13 -67 -3 -147 -56 -288 -142 -378 -368 -856 -566 -1195 -183 -314 -479 -745 -743 -1080 -266 -339 -484 -590 -826 -955 -512 -545 -939 -1050 -1351 -1600 -118 -157 -365 -500 -434 -602 -19 -29 -38 -53 -42 -53 -9 0 39 140 95 276 163 397 431 824 796 1268 148 180 292 345 596 681 452 500 623 700 832 975 437 576 880 1314 1315 2189 170 343 179 371 131 420 -104 103 -653 123 -1008 37 -536 -131 -945 -438 -1412 -1061 -49 -66 -181 -250 -293 -410 -508 -725 -849 -1114 -1255 -1430 -296 -231 -525 -357 -945 -521 -401 -156 -960 -494 -1585 -959 -455 -338 -810 -643 -1219 -1045 -514 -506 -933 -1004 -1301 -1545 -48 -71 -91 -134 -95 -138 -4 -5 -51 56 -105 135 -825 1209 -1997 2315 -3345 3155 -316 197 -519 300 -840 428 -476 189 -817 410 -1194 775 -289 280 -535 583 -926 1140 -347 495 -496 683 -701 889 -204 203 -376 330 -594 437 -206 101 -430 167 -668 195 -201 23 -596 -2 -701 -46 -48 -21 -80 -60 -80 -101 0 -54 375 -796 621 -1229 487 -856 872 -1391 1504 -2090 459 -508 556 -617 697 -785 391 -468 651 -860 826 -1249 62 -135 149 -368 144 -383 -2 -5 -55 64 -117 154 -362 516 -755 1020 -1167 1494 -171 197 -261 296 -680 748 -714 770 -1297 1582 -1668 2324 -149 298 -355 795 -383 926 -14 66 -14 77 0 127 21 71 75 133 173 198 147 99 324 130 624 112 263 -16 551 -83 915 -213 l151 -53 -43 103 c-120 290 -217 679 -257 1032 -9 74 -20 248 -26 385 -27 672 -81 1211 -175 1755 -66 379 -167 593 -290 616 -71 13 -101 -1 -188 -92 -45 -46 -87 -84 -94 -84 -9 0 -13 18 -13 63 -1 138 -48 268 -122 331 -86 74 -219 74 -315 0 l-32 -25 -5 23 c-2 13 -10 55 -16 95 -20 123 -120 296 -205 352 -43 29 -115 37 -167 17z" fill="#cebed5"/>
</g>
</svg>