<svg width="230" height="242" viewBox="0 0 230 242" fill="none" xmlns="http://www.w3.org/2000/svg">
<g filter="url(#filter0_d_135_340)">
<path d="M91.8692 179.75L89.4792 160.63C88.1847 160.132 86.9648 159.534 85.8196 158.837C84.6744 158.14 83.5541 157.393 82.4587 156.597L64.6831 164.065L48.252 135.684L63.6375 124.033C63.5379 123.336 63.4881 122.664 63.4881 122.017V117.983C63.4881 117.336 63.5379 116.664 63.6375 115.967L48.252 104.316L64.6831 75.9345L82.4587 83.4033C83.5541 82.6066 84.6993 81.8597 85.8943 81.1626C87.0893 80.4656 88.2843 79.8681 89.4792 79.3702L91.8692 60.2502H124.732L127.122 79.3702C128.416 79.8681 129.636 80.4656 130.781 81.1626C131.926 81.8597 133.047 82.6066 134.142 83.4033L151.918 75.9345L168.349 104.316L152.963 115.967C153.063 116.664 153.113 117.336 153.113 117.983V122.017C153.113 122.664 153.013 123.336 152.814 124.033L168.199 135.684L151.768 164.065L134.142 156.597C133.047 157.393 131.902 158.14 130.707 158.837C129.512 159.534 128.317 160.132 127.122 160.63L124.732 179.75H91.8692ZM108.599 140.912C114.375 140.912 119.304 138.871 123.387 134.788C127.47 130.705 129.512 125.776 129.512 120C129.512 114.224 127.47 109.295 123.387 105.212C119.304 101.129 114.375 99.0876 108.599 99.0876C102.724 99.0876 97.7695 101.129 93.7364 105.212C89.7033 109.295 87.6868 114.224 87.6868 120C87.6868 125.776 89.7033 130.705 93.7364 134.788C97.7695 138.871 102.724 140.912 108.599 140.912Z" fill="url(#paint0_linear_135_340)"/>
</g>
<defs>
<filter id="filter0_d_135_340" x="-13.3993" y="-1.69971" width="243.399" height="243.399" filterUnits="userSpaceOnUse" color-interpolation-filters="sRGB">
<feFlood flood-opacity="0" result="BackgroundImageFix"/>
<feColorMatrix in="SourceAlpha" type="matrix" values="0 0 0 0 0 0 0 0 0 0 0 0 0 0 0 0 0 0 127 0" result="hardAlpha"/>
<feOffset/>
<feGaussianBlur stdDeviation="25"/>
<feColorMatrix type="matrix" values="0 0 0 0 0.44 0 0 0 0 0 0 0 0 0 1 0 0 0 1 0"/>
<feBlend mode="normal" in2="BackgroundImageFix" result="effect1_dropShadow_135_340"/>
<feBlend mode="normal" in="SourceGraphic" in2="effect1_dropShadow_135_340" result="shape"/>
</filter>
<linearGradient id="paint0_linear_135_340" x1="108.3" y1="60.2502" x2="108.3" y2="179.75" gradientUnits="userSpaceOnUse">
<stop offset="0.19" stop-color="#AD00FF"/>
<stop offset="1" stop-color="#0029FF"/>
</linearGradient>
</defs>
</svg>
