<svg width="184" height="184" viewBox="0 0 184 184" fill="none" xmlns="http://www.w3.org/2000/svg">
<g filter="url(#filter0_d_128_271)">
<path d="M91.6664 112.833C92.847 112.833 93.8366 112.434 94.6352 111.635C95.4338 110.837 95.8331 109.847 95.8331 108.667C95.8331 107.486 95.4338 106.496 94.6352 105.698C93.8366 104.899 92.847 104.5 91.6664 104.5C90.4859 104.5 89.4963 104.899 88.6977 105.698C87.8991 106.496 87.4998 107.486 87.4998 108.667C87.4998 109.847 87.8991 110.837 88.6977 111.635C89.4963 112.434 90.4859 112.833 91.6664 112.833ZM87.4998 96.1666H95.8331V71.1666H87.4998V96.1666ZM91.6664 133.667C85.9025 133.667 80.4859 132.573 75.4164 130.385C70.347 128.198 65.9373 125.229 62.1873 121.479C58.4373 117.729 55.4685 113.319 53.281 108.25C51.0935 103.18 49.9998 97.7638 49.9998 91.9999C49.9998 86.236 51.0935 80.8194 53.281 75.7499C55.4685 70.6805 58.4373 66.2708 62.1873 62.5208C65.9373 58.7708 70.347 55.802 75.4164 53.6145C80.4859 51.427 85.9025 50.3333 91.6664 50.3333C97.4303 50.3333 102.847 51.427 107.916 53.6145C112.986 55.802 117.396 58.7708 121.146 62.5208C124.896 66.2708 127.864 70.6805 130.052 75.7499C132.239 80.8194 133.333 86.236 133.333 91.9999C133.333 97.7638 132.239 103.18 130.052 108.25C127.864 113.319 124.896 117.729 121.146 121.479C117.396 125.229 112.986 128.198 107.916 130.385C102.847 132.573 97.4303 133.667 91.6664 133.667Z" fill="#D6FF63"/>
</g>
<defs>
<filter id="filter0_d_128_271" x="-8.3335" y="-8" width="200" height="200" filterUnits="userSpaceOnUse" color-interpolation-filters="sRGB">
<feFlood flood-opacity="0" result="BackgroundImageFix"/>
<feColorMatrix in="SourceAlpha" type="matrix" values="0 0 0 0 0 0 0 0 0 0 0 0 0 0 0 0 0 0 127 0" result="hardAlpha"/>
<feOffset/>
<feGaussianBlur stdDeviation="25"/>
<feComposite in2="hardAlpha" operator="out"/>
<feColorMatrix type="matrix" values="0 0 0 0 0.871971 0 0 0 0 0.891667 0 0 0 0 0.646458 0 0 0 1 0"/>
<feBlend mode="normal" in2="BackgroundImageFix" result="effect1_dropShadow_128_271"/>
<feBlend mode="normal" in="SourceGraphic" in2="effect1_dropShadow_128_271" result="shape"/>
</filter>
</defs>
</svg>
