<svg width="206" height="206" viewBox="0 0 206 206" fill="none" xmlns="http://www.w3.org/2000/svg">
<g filter="url(#filter0_d_214_172)">
<path d="M76.1541 116.387L67.5833 180.917L103 159.667L138.417 180.917L129.846 116.317M152.583 74.6666C152.583 102.051 130.384 124.25 103 124.25C75.6158 124.25 53.4166 102.051 53.4166 74.6666C53.4166 47.2825 75.6158 25.0833 103 25.0833C130.384 25.0833 152.583 47.2825 152.583 74.6666Z" stroke="#E5F900" stroke-width="4" stroke-linecap="round" stroke-linejoin="round"/>
<path d="M103 43.8333L112.013 62.0916L132.167 65.0374L117.583 79.2416L121.025 99.3083L103 89.8291L84.975 99.3083L88.4167 79.2416L73.8334 65.0374L93.9875 62.0916L103 43.8333Z" stroke="#E5F900" stroke-width="4" stroke-linecap="round" stroke-linejoin="round"/>
</g>
<defs>
<filter id="filter0_d_214_172" x="0" y="0" width="206" height="206" filterUnits="userSpaceOnUse" color-interpolation-filters="sRGB">
<feFlood flood-opacity="0" result="BackgroundImageFix"/>
<feColorMatrix in="SourceAlpha" type="matrix" values="0 0 0 0 0 0 0 0 0 0 0 0 0 0 0 0 0 0 127 0" result="hardAlpha"/>
<feOffset/>
<feGaussianBlur stdDeviation="9"/>
<feColorMatrix type="matrix" values="0 0 0 0 0.898039 0 0 0 0 0.976471 0 0 0 0 0 0 0 0 1 0"/>
<feBlend mode="normal" in2="BackgroundImageFix" result="effect1_dropShadow_214_172"/>
<feBlend mode="normal" in="SourceGraphic" in2="effect1_dropShadow_214_172" result="shape"/>
</filter>
</defs>
</svg>
