<svg width="227" height="259" viewBox="0 0 227 259" fill="none" xmlns="http://www.w3.org/2000/svg">
<g filter="url(#filter0_d_747_336)">
<path d="M52.4167 75.25H77.4167L94.1667 158.938C94.7383 161.815 96.3037 164.4 98.5889 166.239C100.874 168.079 103.734 169.056 106.667 169H167.417C170.35 169.056 173.209 168.079 175.495 166.239C177.78 164.4 179.345 161.815 179.917 158.938L189.917 106.5H83.6667M108.667 200.25C108.667 203.702 105.869 206.5 102.417 206.5C98.965 206.5 96.1667 203.702 96.1667 200.25C96.1667 196.798 98.965 194 102.417 194C105.869 194 108.667 196.798 108.667 200.25ZM177.417 200.25C177.417 203.702 174.619 206.5 171.167 206.5C167.715 206.5 164.917 203.702 164.917 200.25C164.917 196.798 167.715 194 171.167 194C174.619 194 177.417 196.798 177.417 200.25Z" stroke="#00D1FF" stroke-width="4" stroke-linecap="round" stroke-linejoin="round"/>
</g>
<g filter="url(#filter1_d_747_336)">
<g clip-path="url(#clip0_747_336)">
<path d="M113.767 101.066L99.223 88.6153L98.7914 100.755L87.8764 106.088L105.184 114.322M111.815 126.602C105.061 122.215 103.141 113.184 107.528 106.429C111.914 99.674 120.946 97.7542 127.701 102.141C134.456 106.527 136.375 115.559 131.989 122.314C127.602 129.069 118.57 130.989 111.815 126.602Z" stroke="#E5F900" stroke-width="4" stroke-linecap="round" stroke-linejoin="round"/>
</g>
<g clip-path="url(#clip1_747_336)">
<path d="M128.145 119.818L122.367 119.136L118.525 123.507L117.391 117.802L112.047 115.504L117.123 112.66L117.657 106.866L121.93 110.813L127.603 109.529L125.172 114.817L128.145 119.818Z" stroke="#E5F900" stroke-width="4" stroke-linecap="round" stroke-linejoin="round"/>
</g>
</g>
<g filter="url(#filter2_d_747_336)">
<g clip-path="url(#clip2_747_336)">
<path d="M164.935 88.2957L179.289 75.6258L167.327 73.5088L163.566 61.9579L153.003 77.9512M139.919 82.809C145.203 76.7304 154.414 76.0863 160.493 81.3703C166.571 86.6543 167.216 95.8655 161.932 101.944C156.648 108.023 147.436 108.667 141.358 103.383C135.279 98.0987 134.635 88.8875 139.919 82.809Z" stroke="#E5F900" stroke-width="4" stroke-linecap="round" stroke-linejoin="round"/>
</g>
<g clip-path="url(#clip3_747_336)">
<path d="M144.365 99.9235L145.844 94.297L142.05 89.884L147.858 89.5547L150.877 84.5826L152.987 90.0053L158.65 91.34L154.147 95.0219L154.629 100.818L149.731 97.6758L144.365 99.9235Z" stroke="#E5F900" stroke-width="4" stroke-linecap="round" stroke-linejoin="round"/>
</g>
</g>
<g filter="url(#filter3_d_747_336)">
<g clip-path="url(#clip4_747_336)">
<path d="M120.406 138.388L102.042 143.805L111.989 150.779L110.516 162.837L126.848 152.806M140.759 153.933C133.401 157.209 124.781 153.9 121.505 146.542C118.229 139.184 121.538 130.564 128.896 127.288C136.254 124.012 144.874 127.321 148.15 134.679C151.426 142.037 148.117 150.657 140.759 153.933Z" stroke="#E5F900" stroke-width="4" stroke-linecap="round" stroke-linejoin="round"/>
</g>
<g clip-path="url(#clip5_747_336)">
<path d="M143.962 136.543L140.244 141.017L141.817 146.62L136.415 144.464L131.577 147.695L131.957 141.888L127.388 138.285L133.026 136.851L135.038 131.394L138.149 136.312L143.962 136.543Z" stroke="#E5F900" stroke-width="4" stroke-linecap="round" stroke-linejoin="round"/>
</g>
</g>
<g filter="url(#filter4_d_747_336)">
<g clip-path="url(#clip6_747_336)">
<path d="M157.776 139.464L154.594 158.343L165.223 152.461L175.415 159.07L173.559 139.994M180.67 127.985C180.389 136.034 173.636 142.332 165.586 142.05C157.537 141.769 151.24 135.016 151.521 126.967C151.802 118.918 158.555 112.62 166.604 112.902C174.653 113.183 180.951 119.936 180.67 127.985Z" stroke="#E5F900" stroke-width="4" stroke-linecap="round" stroke-linejoin="round"/>
</g>
<g clip-path="url(#clip7_747_336)">
<path d="M166.444 117.482L168.836 122.786L174.561 123.828L170.255 127.738L171.038 133.502L165.986 130.616L160.744 133.143L161.927 127.447L157.905 123.246L163.689 122.606L166.444 117.482Z" stroke="#E5F900" stroke-width="4" stroke-linecap="round" stroke-linejoin="round"/>
</g>
</g>
<defs>
<filter id="filter0_d_747_336" x="-3.83325" y="19" width="250" height="250" filterUnits="userSpaceOnUse" color-interpolation-filters="sRGB">
<feFlood flood-opacity="0" result="BackgroundImageFix"/>
<feColorMatrix in="SourceAlpha" type="matrix" values="0 0 0 0 0 0 0 0 0 0 0 0 0 0 0 0 0 0 127 0" result="hardAlpha"/>
<feOffset/>
<feGaussianBlur stdDeviation="25"/>
<feColorMatrix type="matrix" values="0 0 0 0 0 0 0 0 0 0.819608 0 0 0 0 1 0 0 0 1 0"/>
<feBlend mode="normal" in2="BackgroundImageFix" result="effect1_dropShadow_747_336"/>
<feBlend mode="normal" in="SourceGraphic" in2="effect1_dropShadow_747_336" result="shape"/>
</filter>
<filter id="filter1_d_747_336" x="28.1865" y="25.25" width="169.166" height="169.166" filterUnits="userSpaceOnUse" color-interpolation-filters="sRGB">
<feFlood flood-opacity="0" result="BackgroundImageFix"/>
<feColorMatrix in="SourceAlpha" type="matrix" values="0 0 0 0 0 0 0 0 0 0 0 0 0 0 0 0 0 0 127 0" result="hardAlpha"/>
<feOffset/>
<feGaussianBlur stdDeviation="25"/>
<feColorMatrix type="matrix" values="0 0 0 0 0.898039 0 0 0 0 0.976471 0 0 0 0 0 0 0 0 1 0"/>
<feBlend mode="normal" in2="BackgroundImageFix" result="effect1_dropShadow_747_336"/>
<feBlend mode="normal" in="SourceGraphic" in2="effect1_dropShadow_747_336" result="shape"/>
</filter>
<filter id="filter2_d_747_336" x="71.1233" y="0.818115" width="170.539" height="170.538" filterUnits="userSpaceOnUse" color-interpolation-filters="sRGB">
<feFlood flood-opacity="0" result="BackgroundImageFix"/>
<feColorMatrix in="SourceAlpha" type="matrix" values="0 0 0 0 0 0 0 0 0 0 0 0 0 0 0 0 0 0 127 0" result="hardAlpha"/>
<feOffset/>
<feGaussianBlur stdDeviation="25"/>
<feColorMatrix type="matrix" values="0 0 0 0 0.898039 0 0 0 0 0.976471 0 0 0 0 0 0 0 0 1 0"/>
<feBlend mode="normal" in2="BackgroundImageFix" result="effect1_dropShadow_747_336"/>
<feBlend mode="normal" in="SourceGraphic" in2="effect1_dropShadow_747_336" result="shape"/>
</filter>
<filter id="filter3_d_747_336" x="44.2073" y="60.9929" width="166.014" height="166.014" filterUnits="userSpaceOnUse" color-interpolation-filters="sRGB">
<feFlood flood-opacity="0" result="BackgroundImageFix"/>
<feColorMatrix in="SourceAlpha" type="matrix" values="0 0 0 0 0 0 0 0 0 0 0 0 0 0 0 0 0 0 127 0" result="hardAlpha"/>
<feOffset/>
<feGaussianBlur stdDeviation="25"/>
<feColorMatrix type="matrix" values="0 0 0 0 0.898039 0 0 0 0 0.976471 0 0 0 0 0 0 0 0 1 0"/>
<feBlend mode="normal" in2="BackgroundImageFix" result="effect1_dropShadow_747_336"/>
<feBlend mode="normal" in="SourceGraphic" in2="effect1_dropShadow_747_336" result="shape"/>
</filter>
<filter id="filter4_d_747_336" x="89.9473" y="59.947" width="151.714" height="151.715" filterUnits="userSpaceOnUse" color-interpolation-filters="sRGB">
<feFlood flood-opacity="0" result="BackgroundImageFix"/>
<feColorMatrix in="SourceAlpha" type="matrix" values="0 0 0 0 0 0 0 0 0 0 0 0 0 0 0 0 0 0 127 0" result="hardAlpha"/>
<feOffset/>
<feGaussianBlur stdDeviation="25"/>
<feColorMatrix type="matrix" values="0 0 0 0 0.898039 0 0 0 0 0.976471 0 0 0 0 0 0 0 0 1 0"/>
<feBlend mode="normal" in2="BackgroundImageFix" result="effect1_dropShadow_747_336"/>
<feBlend mode="normal" in="SourceGraphic" in2="effect1_dropShadow_747_336" result="shape"/>
</filter>
<clipPath id="clip0_747_336">
<rect width="50" height="50" fill="white" transform="translate(147.352 102.482) rotate(123)"/>
</clipPath>
<clipPath id="clip1_747_336">
<rect width="20" height="20" fill="white" transform="translate(134.989 112.339) rotate(123)"/>
</clipPath>
<clipPath id="clip2_747_336">
<rect width="50" height="50" fill="white" transform="translate(158.859 121.356) rotate(-139)"/>
</clipPath>
<clipPath id="clip3_747_336">
<rect width="20" height="20" fill="white" transform="translate(150.819 107.742) rotate(-139)"/>
</clipPath>
<clipPath id="clip4_747_336">
<rect width="50" height="50" fill="white" transform="translate(139.885 110.993) rotate(66)"/>
</clipPath>
<clipPath id="clip5_747_336">
<rect width="20" height="20" fill="white" transform="translate(141.418 126.73) rotate(66)"/>
</clipPath>
<clipPath id="clip6_747_336">
<rect width="50" height="50" fill="white" transform="translate(141.692 109.947) rotate(2)"/>
</clipPath>
<clipPath id="clip7_747_336">
<rect width="20" height="20" fill="white" transform="translate(156.509 115.468) rotate(2)"/>
</clipPath>
</defs>
</svg>
