<svg width="70" height="70" viewBox="0 0 70 70" fill="none" xmlns="http://www.w3.org/2000/svg">
<path d="M8.75 52.5V35C8.75 28.0381 11.5156 21.3613 16.4384 16.4384C21.3613 11.5156 28.0381 8.75 35 8.75C41.9619 8.75 48.6387 11.5156 53.5616 16.4384C58.4844 21.3613 61.25 28.0381 61.25 35V52.5M61.25 55.4167C61.25 56.9638 60.6354 58.4475 59.5415 59.5415C58.4475 60.6354 56.9638 61.25 55.4167 61.25H52.5C50.9529 61.25 49.4692 60.6354 48.3752 59.5415C47.2813 58.4475 46.6667 56.9638 46.6667 55.4167V46.6667C46.6667 45.1196 47.2813 43.6358 48.3752 42.5419C49.4692 41.4479 50.9529 40.8333 52.5 40.8333H61.25V55.4167ZM8.75 55.4167C8.75 56.9638 9.36458 58.4475 10.4585 59.5415C11.5525 60.6354 13.0362 61.25 14.5833 61.25H17.5C19.0471 61.25 20.5308 60.6354 21.6248 59.5415C22.7188 58.4475 23.3333 56.9638 23.3333 55.4167V46.6667C23.3333 45.1196 22.7188 43.6358 21.6248 42.5419C20.5308 41.4479 19.0471 40.8333 17.5 40.8333H8.75V55.4167Z" stroke="#F5F5F5" stroke-width="4" stroke-linecap="round" stroke-linejoin="round"/>
</svg>
