<svg xmlns="http://www.w3.org/2000/svg" width="70" height="70" viewBox="0 0 70 70" fill="none">
<path d="M35 35.0001C31.7917 35.0001 29.0452 33.8577 26.7604 31.573C24.4757 29.2883 23.3334 26.5417 23.3334 23.3334C23.3334 20.1251 24.4757 17.3786 26.7604 15.0938C29.0452 12.8091 31.7917 11.6667 35 11.6667C38.2084 11.6667 40.9549 12.8091 43.2396 15.0938C45.5243 17.3786 46.6667 20.1251 46.6667 23.3334C46.6667 26.5417 45.5243 29.2883 43.2396 31.573C40.9549 33.8577 38.2084 35.0001 35 35.0001ZM11.6667 58.3334V50.1667C11.6667 48.514 12.092 46.9949 12.9427 45.6095C13.7934 44.224 14.9236 43.1667 16.3334 42.4376C19.3472 40.9306 22.4097 39.8004 25.5209 39.047C28.632 38.2935 31.7917 37.9167 35 37.9167C38.2084 37.9167 41.3681 38.2935 44.4792 39.047C47.5903 39.8004 50.6528 40.9306 53.6667 42.4376C55.0764 43.1667 56.2066 44.224 57.0573 45.6095C57.908 46.9949 58.3334 48.514 58.3334 50.1667V58.3334H11.6667ZM17.5 52.5001H52.5V50.1667C52.5 49.632 52.3663 49.1459 52.099 48.7084C51.8316 48.2709 51.4792 47.9306 51.0417 47.6876C48.4167 46.3751 45.7674 45.3907 43.0938 44.7345C40.4202 44.0782 37.7222 43.7501 35 43.7501C32.2778 43.7501 29.5799 44.0782 26.9063 44.7345C24.2327 45.3907 21.5834 46.3751 18.9584 47.6876C18.5209 47.9306 18.1684 48.2709 17.9011 48.7084C17.6337 49.1459 17.5 49.632 17.5 50.1667V52.5001ZM35 29.1667C36.6042 29.1667 37.9775 28.5956 39.1198 27.4532C40.2622 26.3108 40.8334 24.9376 40.8334 23.3334C40.8334 21.7292 40.2622 20.356 39.1198 19.2136C37.9775 18.0713 36.6042 17.5001 35 17.5001C33.3959 17.5001 32.0226 18.0713 30.8802 19.2136C29.7379 20.356 29.1667 21.7292 29.1667 23.3334C29.1667 24.9376 29.7379 26.3108 30.8802 27.4532C32.0226 28.5956 33.3959 29.1667 35 29.1667Z" fill="#cebed5"/>
</svg>